<?xml version="1.0" standalone="no"?>
<!DOCTYPE svg PUBLIC "-//W3C//DTD SVG 20010904//EN"
 "http://www.w3.org/TR/2001/REC-SVG-20010904/DTD/svg10.dtd">
<svg version="1.0" xmlns="http://www.w3.org/2000/svg"
 width="365.000000pt" height="365.000000pt" viewBox="0 0 365.000000 365.000000"
 preserveAspectRatio="xMidYMid meet">
<metadata>
Created by potrace 1.11, written by Peter Selinger 2001-2013
</metadata>
<g transform="translate(0.000000,365.000000) scale(0.100000,-0.100000)"
fill="#000000" stroke="none">
<path d="M1650 2759 c-107 -20 -258 -129 -330 -237 -17 -25 -30 -41 -30 -36 0
11 -58 -93 -67 -118 -3 -10 -10 -18 -16 -18 -6 0 -8 -3 -4 -6 3 -4 -1 -21 -11
-38 -9 -17 -17 -35 -17 -41 0 -5 -3 -14 -6 -20 -4 -5 -14 -38 -24 -72 -19 -62
-25 -68 -85 -78 -8 -2 -33 -6 -55 -10 -22 -3 -51 -8 -64 -9 -17 -1 -28 -11
-34 -30 -14 -43 2 -51 101 -51 87 0 101 -7 83 -40 -3 -5 -6 -19 -7 -30 -1 -11
-13 -71 -27 -132 -14 -62 -23 -113 -20 -113 3 0 0 -6 -6 -14 -6 -7 -9 -21 -5
-30 3 -9 1 -16 -4 -16 -6 0 -11 -8 -11 -17 1 -18 -8 -78 -11 -78 -2 0 -5 -14
-14 -65 -4 -19 -8 -39 -10 -45 -3 -10 -15 -66 -21 -100 -2 -11 -4 -20 -5 -20
-1 0 -3 -11 -5 -25 -2 -14 -6 -34 -8 -45 -8 -31 -25 -107 -31 -137 -14 -68
-17 -79 -25 -100 -5 -13 -9 -25 -9 -28 -1 -3 -8 -21 -16 -41 -32 -77 -104 -87
-180 -25 -54 45 -117 57 -148 28 -10 -8 -18 -11 -18 -6 0 5 -6 -2 -13 -16 -12
-22 -13 -44 -8 -96 2 -19 64 -74 91 -81 14 -3 30 -9 35 -13 16 -11 98 -3 138
13 20 9 37 13 37 9 0 -4 4 -2 8 3 4 6 23 22 42 36 90 67 205 222 225 302 4 15
12 27 18 27 6 0 7 3 4 7 -4 3 -2 12 4 20 6 7 9 13 6 13 -4 0 3 21 13 46 11 25
18 50 14 55 -3 5 -1 9 4 9 5 0 9 6 9 13 0 6 6 32 12 57 11 43 15 59 26 108 3
12 8 32 11 45 3 12 7 29 9 37 2 8 4 15 5 15 1 0 3 7 5 15 2 8 6 26 9 40 6 30
5 26 51 220 21 85 38 160 39 165 4 26 19 31 76 29 34 -1 68 -5 76 -8 8 -3 14
-1 14 4 0 5 13 7 29 4 47 -10 76 20 72 74 -2 35 -7 40 -46 37 -20 -1 -35 3
-35 9 0 6 -4 5 -9 -2 -4 -8 -12 -14 -16 -14 -4 0 -12 6 -16 14 -5 7 -9 9 -9 3
0 -5 -24 -10 -53 -10 l-53 0 13 50 c8 28 16 65 19 84 3 19 9 44 14 55 4 12 8
26 8 31 2 26 27 114 40 145 9 19 15 39 14 43 -1 4 5 10 13 13 8 3 13 9 11 13
-3 4 11 18 31 31 49 33 121 36 165 6 97 -65 172 -56 214 26 8 16 11 28 7 28
-5 0 -3 4 4 8 21 13 -19 84 -58 104 -41 21 -118 28 -179 17z"/>
<path d="M2004 2717 c-13 -10 -24 -27 -24 -37 0 -10 -5 -22 -10 -25 -6 -4 -8
-10 -5 -14 2 -5 -4 -31 -14 -60 -11 -28 -18 -51 -16 -51 2 0 -3 -16 -11 -35
-8 -19 -12 -35 -9 -35 3 0 -1 -13 -10 -30 -9 -16 -13 -30 -11 -30 3 0 1 -12
-5 -27 -6 -16 -12 -35 -14 -43 -2 -8 -13 -46 -25 -85 -12 -38 -22 -74 -24 -80
-1 -5 -11 -37 -21 -70 -10 -33 -20 -67 -20 -75 -1 -9 -8 -27 -15 -40 -7 -14
-13 -27 -12 -30 2 -9 -9 -54 -24 -92 -8 -21 -11 -38 -8 -38 4 0 1 -7 -6 -15
-7 -9 -10 -18 -7 -22 4 -3 1 -15 -5 -27 -7 -11 -13 -25 -14 -31 -19 -79 -47
-171 -54 -180 -4 -5 -6 -18 -5 -27 2 -10 -1 -18 -7 -18 -6 0 -8 -7 -4 -15 3
-8 1 -15 -4 -15 -5 0 -7 -7 -4 -15 4 -8 1 -15 -7 -15 -7 0 -10 -3 -6 -6 3 -3
2 -17 -3 -30 -6 -14 -12 -35 -15 -47 -3 -12 -11 -44 -19 -72 -16 -58 -7 -69
56 -70 42 -1 77 21 83 50 2 11 4 20 5 20 1 0 3 7 5 15 1 8 28 101 60 205 31
105 58 197 60 205 2 8 13 45 25 83 12 37 23 73 24 80 2 6 11 39 21 72 11 33
20 62 20 65 9 38 29 103 40 133 8 20 13 37 10 37 -3 0 1 16 9 35 8 19 12 35 9
35 -3 0 -1 6 5 13 6 6 10 14 10 17 0 3 6 25 13 50 7 25 14 50 15 55 1 6 15 51
29 100 15 50 28 95 30 100 1 6 5 17 8 25 14 37 27 84 27 96 0 30 -91 39 -126
11z"/>
<path d="M2534 2660 c-10 -4 -22 -6 -26 -3 -5 2 -14 1 -20 -4 -7 -4 -18 -8
-24 -9 -49 -8 -201 -125 -188 -145 3 -5 2 -9 -3 -9 -7 0 -35 -51 -39 -72 -1
-5 -3 -9 -4 -10 -13 -13 -19 -171 -7 -185 5 -7 7 -13 3 -13 -15 0 56 -119 98
-164 25 -28 46 -53 46 -56 0 -3 14 -14 31 -24 28 -17 29 -19 12 -32 -10 -7
-22 -14 -26 -14 -4 0 -19 -12 -32 -26 -14 -15 -25 -24 -25 -21 0 8 -53 -47
-88 -90 -47 -61 -72 -114 -76 -160 0 -13 -4 -23 -7 -23 -19 0 9 -156 34 -187
5 -7 6 -13 1 -13 -4 0 1 -7 12 -15 10 -8 16 -15 11 -15 -4 0 12 -17 35 -37 24
-21 45 -41 48 -44 9 -10 98 -48 127 -55 111 -25 279 -1 352 51 28 19 131 128
126 133 -3 3 -1 10 4 16 5 6 15 34 23 61 18 62 16 123 -6 210 -12 51 -104 177
-167 230 -53 45 -58 55 -30 62 11 3 22 11 25 19 3 8 13 14 22 14 10 0 15 2 12
5 -3 3 11 22 31 43 55 57 81 91 85 110 2 9 11 35 20 56 10 22 18 58 18 80 1
58 -12 130 -23 134 -5 2 -7 8 -3 13 3 5 0 9 -6 9 -6 0 -9 4 -6 9 3 4 -3 16
-14 26 -11 10 -20 23 -20 29 -1 19 -134 104 -168 106 -4 0 -21 3 -37 6 -51 9
-110 11 -131 4z m113 -99 c6 0 18 -7 25 -14 7 -7 16 -14 21 -15 10 -3 49 -42
41 -42 -4 0 -1 -6 5 -14 19 -23 25 -57 25 -141 0 -83 -3 -106 -17 -116 -4 -3
-9 -16 -10 -27 -1 -12 -4 -22 -8 -22 -4 0 -12 -12 -18 -28 -12 -29 -67 -92
-80 -92 -9 0 -141 133 -169 170 -35 45 -56 102 -57 154 -1 28 2 56 7 62 4 6 9
20 11 31 4 27 55 77 92 90 24 8 83 10 132 4z m-62 -753 c75 -71 120 -132 132
-180 12 -47 9 -163 -5 -198 -32 -82 -120 -125 -213 -107 -27 5 -49 14 -49 19
0 5 -4 7 -8 4 -20 -12 -93 95 -98 144 -1 14 -3 25 -4 25 -1 0 -3 18 -4 40 -3
67 21 164 55 216 28 45 94 109 110 109 4 0 42 -33 84 -72z"/>
</g>
</svg>
