<?xml version="1.0" standalone="no"?>
<!DOCTYPE svg PUBLIC "-//W3C//DTD SVG 20010904//EN"
 "http://www.w3.org/TR/2001/REC-SVG-20010904/DTD/svg10.dtd">
<svg version="1.0" xmlns="http://www.w3.org/2000/svg"
 width="365.000000pt" height="365.000000pt" viewBox="0 0 365.000000 365.000000"
 preserveAspectRatio="xMidYMid meet">
<metadata>
Created by potrace 1.11, written by Peter Selinger 2001-2013
</metadata>
<g transform="translate(0.000000,365.000000) scale(0.100000,-0.100000)"
fill="#000000" stroke="none">
<path d="M1603 2730 c-183 -65 -358 -282 -438 -543 -30 -99 -22 -94 -195 -122
-42 -7 -61 -22 -53 -41 4 -11 27 -14 97 -14 51 0 95 -3 98 -6 3 -3 -1 -33 -9
-67 -8 -34 -17 -75 -19 -92 -3 -16 -7 -36 -10 -44 -3 -8 -34 -155 -70 -325
-127 -604 -134 -625 -231 -639 -26 -4 -44 3 -95 39 -72 49 -101 57 -139 38
-31 -15 -39 -32 -39 -79 0 -43 46 -88 106 -105 172 -48 365 123 478 423 19 51
103 371 122 462 3 19 65 275 85 358 l10 37 115 -2 c104 -2 117 -1 130 17 17
23 18 51 3 61 -6 3 -60 7 -120 7 -60 0 -109 3 -109 6 0 3 5 26 11 51 12 52 17
75 24 110 3 14 9 40 14 58 5 17 8 32 6 32 -8 0 46 144 66 179 53 89 147 110
241 52 28 -18 66 -32 85 -33 67 -3 119 65 101 130 -18 67 -151 93 -265 52z"/>
<path d="M2019 2713 c-9 -2 -21 -21 -27 -41 -23 -82 -227 -765 -259 -872 -19
-63 -46 -151 -58 -195 -13 -44 -42 -142 -65 -219 -25 -86 -38 -142 -32 -148 5
-5 29 -8 53 -6 l44 3 32 100 c17 55 40 132 52 170 11 39 95 319 186 624 91
305 165 563 165 573 0 14 -8 18 -37 17 -21 -1 -45 -3 -54 -6z"/>
<path d="M2489 2636 c-98 -26 -188 -101 -231 -196 -13 -28 -22 -74 -26 -127
-5 -78 -3 -86 28 -149 22 -46 57 -91 111 -145 l79 -79 -31 -16 c-56 -29 -184
-165 -214 -228 -110 -228 57 -456 335 -456 167 0 281 62 351 192 31 58 34 70
34 154 0 83 -3 95 -35 160 -24 49 -60 94 -120 155 l-85 86 48 33 c60 42 126
118 163 190 40 79 40 181 1 262 -34 69 -91 121 -166 149 -66 25 -177 32 -242
15z m193 -78 c128 -72 136 -306 16 -463 -55 -71 -63 -73 -116 -23 -75 69 -145
154 -170 205 -36 76 -23 191 26 247 52 58 171 75 244 34z m-93 -734 c119 -111
152 -174 153 -297 0 -95 -35 -167 -96 -197 -162 -78 -309 20 -322 213 -5 79 8
151 38 211 20 38 120 146 137 146 4 0 45 -34 90 -76z"/>
</g>
</svg>
