<?xml version="1.0" standalone="no"?>
<!DOCTYPE svg PUBLIC "-//W3C//DTD SVG 20010904//EN"
 "http://www.w3.org/TR/2001/REC-SVG-20010904/DTD/svg10.dtd">
<svg version="1.0" xmlns="http://www.w3.org/2000/svg"
 width="365.000000pt" height="365.000000pt" viewBox="0 0 365.000000 365.000000"
 preserveAspectRatio="xMidYMid meet">
<metadata>
Created by potrace 1.11, written by Peter Selinger 2001-2013
</metadata>
<g transform="translate(0.000000,365.000000) scale(0.100000,-0.100000)"
fill="#000000" stroke="none">
<path d="M1620 3629 c-106 -12 -259 -46 -365 -80 -135 -45 -356 -157 -480
-244 -135 -96 -332 -292 -428 -425 -80 -113 -204 -358 -246 -488 -119 -364
-119 -770 0 -1134 42 -130 166 -375 246 -488 96 -133 293 -329 428 -425 124
-87 345 -199 480 -243 369 -121 770 -121 1140 -1 126 42 373 167 480 243 252
181 451 420 585 698 176 369 223 752 139 1160 -87 429 -355 838 -724 1104
-107 76 -354 201 -480 243 -243 79 -526 108 -775 80z m169 -889 c83 -24 109
-103 52 -161 -41 -41 -91 -40 -157 3 -40 27 -58 32 -100 32 -86 -2 -138 -47
-177 -154 -17 -44 -87 -333 -87 -357 0 -10 30 -13 115 -13 126 0 134 -4 116
-53 l-11 -27 -119 0 -120 0 -10 -37 c-6 -21 -48 -195 -95 -388 -84 -348 -115
-454 -164 -550 -87 -173 -215 -291 -338 -310 -93 -15 -194 47 -194 119 0 48
28 76 78 76 29 0 51 -10 93 -40 68 -51 89 -57 136 -33 68 33 81 74 201 638 60
281 107 513 105 518 -2 4 -47 7 -99 7 -93 0 -95 1 -92 23 3 19 12 24 82 35
125 21 140 30 154 93 7 30 28 89 46 131 136 313 387 505 585 448z m317 -33 c7
-19 -423 -1459 -439 -1469 -17 -11 -85 -10 -91 1 -10 15 423 1455 441 1469 22
16 82 16 89 -1z m613 -84 c136 -46 224 -180 206 -313 -14 -101 -125 -258 -215
-305 l-30 -16 73 -72 c132 -128 186 -241 173 -360 -21 -202 -187 -329 -411
-314 -100 6 -179 35 -238 88 -103 90 -133 241 -73 361 36 72 106 150 184 207
l60 44 -77 77 c-107 105 -136 166 -136 280 0 71 4 94 26 141 81 172 268 247
458 182z"/>
<path d="M2495 2566 c-93 -43 -134 -184 -85 -289 34 -72 196 -247 229 -247 13
0 82 92 109 145 49 100 52 206 8 302 -34 72 -74 97 -161 101 -44 1 -81 -3
-100 -12z"/>
<path d="M2441 1854 c-140 -126 -164 -368 -48 -488 81 -85 219 -87 297 -5 65
69 73 216 18 326 -21 42 -188 213 -207 213 -5 0 -32 -21 -60 -46z"/>
</g>
</svg>
