<?xml version="1.0" standalone="no"?>
<!DOCTYPE svg PUBLIC "-//W3C//DTD SVG 20010904//EN"
 "http://www.w3.org/TR/2001/REC-SVG-20010904/DTD/svg10.dtd">
<svg version="1.0" xmlns="http://www.w3.org/2000/svg"
 width="450.000000pt" height="450.000000pt" viewBox="0 0 450.000000 450.000000"
 preserveAspectRatio="xMidYMid meet">
<metadata>
Created by potrace 1.11, written by Peter Selinger 2001-2013
</metadata>
<g transform="translate(0.000000,450.000000) scale(0.100000,-0.100000)"
fill="#000000" stroke="none">
<path d="M2037 3165 c-175 -49 -374 -287 -447 -535 -13 -41 -29 -83 -37 -92
-15 -16 -74 -33 -158 -43 -39 -5 -70 -29 -59 -46 3 -5 48 -9 100 -9 88 0 94
-1 94 -20 0 -11 -18 -104 -40 -206 -22 -103 -42 -196 -45 -208 -11 -56 -15
-74 -25 -116 -5 -25 -28 -133 -51 -240 -65 -308 -86 -361 -152 -378 -43 -12
-78 0 -129 41 -51 41 -79 49 -119 35 -59 -20 -68 -97 -18 -146 61 -60 167 -66
259 -16 166 90 297 324 365 650 2 11 24 102 48 204 25 102 55 226 67 275 12
50 24 98 26 107 5 16 19 17 119 16 118 -2 136 3 142 39 7 45 -1 48 -122 46
-104 -1 -115 0 -111 15 3 10 7 34 10 54 12 79 67 284 90 332 38 82 69 107 149
120 29 5 50 -2 109 -33 52 -27 82 -37 103 -34 60 9 102 78 82 136 -19 57 -141
83 -250 52z"/>
<path d="M2433 3142 c-6 -4 -28 -63 -47 -131 -34 -116 -124 -419 -166 -556
-146 -480 -230 -779 -222 -787 5 -5 29 -8 53 -6 42 3 44 5 61 50 10 26 20 58
22 70 3 13 64 221 136 463 73 242 162 541 199 665 46 153 64 227 57 232 -14
10 -78 10 -93 0z"/>
<path d="M2910 3065 c-100 -27 -175 -87 -223 -179 -29 -56 -32 -69 -32 -156 0
-87 3 -100 30 -150 17 -30 65 -90 107 -132 l77 -77 -49 -31 c-68 -44 -162
-147 -195 -214 -62 -127 -39 -257 64 -356 80 -77 134 -95 276 -95 90 1 120 5
165 23 76 30 145 93 183 166 28 55 31 70 32 152 0 83 -3 95 -35 160 -24 47
-61 95 -117 153 -46 46 -83 85 -83 86 0 2 24 21 54 44 61 46 132 134 161 201
14 30 20 67 20 115 0 127 -73 230 -193 275 -66 25 -180 32 -242 15z m194 -79
c61 -36 97 -110 101 -211 2 -57 -11 -111 -45 -180 -27 -55 -92 -135 -109 -135
-12 1 -127 115 -168 167 -58 74 -77 129 -70 204 10 114 79 178 191 179 45 0
69 -6 100 -24z m-95 -732 c45 -42 93 -96 108 -121 80 -137 53 -322 -56 -377
-69 -36 -166 -27 -229 21 -95 72 -119 267 -50 408 18 36 122 145 138 145 4 0
44 -34 89 -76z"/>
</g>
</svg>
